# xmcd CD database file
#
# Track frame offsets:
#	150
#	12197
#	25095
#	48965
#	67705
#	86165
#	100680
#	118340
#	130295
#	145372
#	154577
#	161350
#	180557
#	200382
#	223432
#
# Disc length: 3106 seconds
#
# Revision: 0
# Processed by: cddbd v1.4PL0 Copyright (c) Steve Scherf et al.
# Submitted via: CDex 1.50
#
DISCID=ca0c200f
DTITLE=比德．李程 - 比德狂想曲   午睡
DYEAR=1900
DGENRE=New Age
TTITLE0=掛鐘
TTITLE1=童年的約會
TTITLE2=中國市場
TTITLE3=林中漫步
TTITLE4=初戀
TTITLE5=光影
TTITLE6=SAGA
TTITLE7=掛鐘2
TTITLE8=下午茶
TTITLE9=老街
TTITLE10=嬉戲
TTITLE11=藍色的女人
TTITLE12=慾望
TTITLE13=海洋
TTITLE14=微笑
EXTD=
EXTT0=
EXTT1=
EXTT2=
EXTT3=
EXTT4=
EXTT5=
EXTT6=
EXTT7=
EXTT8=
EXTT9=
EXTT10=
EXTT11=
EXTT12=
EXTT13=
EXTT14=
PLAYORDER=
